# xmcd
#
# Track frame offsets:
#	150
#	18287
#	45735
#	67105
#
# Disc length: 1174 seconds
#
# Revision: 1
# Processed by: cddbd v1.5.2PL0 Copyright (c) Steve Scherf et al.
# Submitted via: audiograbber 1.82.01
#
DISCID=2f049404
DTITLE=Buddha Monk ft. Ol' Dirty Bastard - Got's like come on thru
DYEAR=1998
DGENRE=
TTITLE0=Got's like come on thru (radio edit)
TTITLE1=Got's like come on thru (prisoners of technology rmx)
TTITLE2=Got's like come on thru (freundeskreis rmx)
TTITLE3=Got's like come on thru (silly-walks-soundsystem-rmx)
EXTD=
EXTT0=
EXTT1=
EXTT2=
EXTT3=
PLAYORDER=
